# xmcd
#
# Track frame offsets:
#	150
#	17630
#	39805
#	67582
#	87060
#	105135
#	128642
#	146855
#	168559
#	189220
#
# Disc length: 2892 seconds
#
# Revision: 0
# Processed by: cddbd v1.5.2PL0 Copyright (c) Steve Scherf et al.
# Submitted via: audiograbber 1.83.01
#
DISCID=6b0b4a0a
DTITLE=The Son, Hoang Lan - Tim Nhau Trong Ky Niem
DYEAR=1996
DGENRE=
TTITLE0=The Son, Hoang Lan - Anh Ve Keo Mua
TTITLE1=The Son - Tim Nhau Trong Ky Niem, Dem Tam Su
TTITLE2=Hoang Lan - Mua Hoa Anh Dao
TTITLE3=The Son - Be Bang
TTITLE4=Hoang Lan - Mot Minh Thoi
TTITLE5=Hoang Lan - Doan Cuoi Mot Cuoc Tinh
TTITLE6=The Son - Gia Tu
TTITLE7=Hoang Lan - Hue Xua
TTITLE8=The Son - Khong Bao Gio Ngan Cach
TTITLE9=The Son, Hoang Lan - Hai Hoa Rung Cho Em
EXTD=
EXTT0=
EXTT1=
EXTT2=
EXTT3=
EXTT4=
EXTT5=
EXTT6=
EXTT7=
EXTT8=
EXTT9=
PLAYORDER=
